<?xml version="1.0" standalone="no"?>
<!DOCTYPE svg PUBLIC "-//W3C//DTD SVG 20010904//EN"
 "http://www.w3.org/TR/2001/REC-SVG-20010904/DTD/svg10.dtd">
<svg version="1.0" xmlns="http://www.w3.org/2000/svg"
 width="600.000000pt" height="600.000000pt" viewBox="0 0 600.000000 600.000000"
 preserveAspectRatio="xMidYMid meet">
<g transform="translate(0.000000,600.000000) scale(0.100000,-0.100000)"
fill="#000000" stroke="none">
<path d="M2427 4308 c-243 -274 -238 -268 -437 -500 -49 -56 -68 -84 -60 -92
21 -21 7 -26 -85 -26 l-95 0 0 84 c0 45 5 97 11 115 6 18 9 35 5 38 -6 6 -93
-49 -134 -85 -11 -10 -42 -33 -71 -52 -28 -19 -51 -41 -51 -48 0 -7 10 -26 22
-42 28 -38 17 -48 -27 -27 -30 15 -72 17 -280 17 -189 0 -245 -3 -245 -12 0
-7 7 -31 15 -53 11 -30 14 -97 15 -276 0 -264 1 -271 69 -357 60 -75 74 -80
111 -38 35 39 72 59 255 132 39 15 75 32 82 37 29 21 33 -7 33 -238 l0 -233
-62 1 c-47 1 -74 -4 -108 -21 -54 -26 -71 -42 -175 -158 -182 -203 -274 -274
-423 -325 -173 -59 -434 47 -391 159 17 45 -16 87 -47 61 -35 -29 -9 -96 63
-165 141 -137 362 -162 611 -68 114 43 200 101 302 204 107 109 202 185 242
195 24 6 36 -1 91 -54 35 -34 68 -61 74 -61 16 0 123 126 123 145 0 11 -5 15
-15 11 -17 -6 -55 41 -79 98 -14 33 -16 100 -16 503 l0 464 112 -3 113 -3 6
-30 c4 -16 7 -250 8 -520 l1 -490 28 -52 c28 -56 126 -163 147 -163 7 0 24 15
38 33 14 17 38 46 53 64 56 62 64 73 63 91 0 14 -2 13 -11 -5 -25 -51 -62 -37
-104 39 l-29 53 -3 450 c-2 248 -1 469 3 493 l6 42 695 0 c382 0 695 -1 696
-2 1 -2 4 -237 7 -523 l6 -520 25 -49 c13 -26 51 -77 84 -113 l59 -64 29 28
c17 15 53 57 81 93 28 36 56 68 61 72 6 4 7 10 4 14 -4 3 -19 -6 -33 -20 -30
-30 -51 -25 -83 21 -46 66 -46 75 -49 543 -1 245 1 461 5 480 l8 35 349 0
c346 0 350 0 353 -21 2 -15 -13 -33 -54 -65 -31 -24 -87 -69 -124 -99 -37 -30
-115 -92 -173 -138 -58 -46 -111 -89 -117 -97 -8 -9 -11 -113 -10 -342 1 -322
3 -390 16 -402 3 -3 92 -8 197 -9 211 -4 254 3 287 45 11 14 22 24 24 22 1 -2
22 -30 45 -61 23 -32 53 -66 68 -75 25 -17 26 -17 65 28 22 24 58 64 80 88 43
47 44 62 4 36 -32 -21 -42 -14 -82 57 l-29 53 0 490 0 490 75 0 75 0 1 -50 c0
-27 8 -64 17 -81 16 -31 104 -104 125 -104 14 0 34 -35 25 -44 -3 -3 -42 -6
-85 -6 -43 0 -78 -2 -78 -4 0 -3 5 -17 12 -33 6 -15 14 -89 18 -163 6 -117 10
-143 33 -190 53 -111 113 -140 292 -140 96 0 115 3 115 15 0 8 -4 15 -9 15 -5
0 -12 8 -15 18 -4 10 -14 27 -24 38 -10 11 -27 33 -37 49 -36 56 -87 115 -96
109 -5 -3 -9 -13 -9 -23 0 -10 -8 -25 -18 -34 -42 -38 -113 -5 -132 61 -13 49
-13 58 6 76 13 13 46 16 200 16 180 0 217 -5 236 -34 4 -6 8 -77 8 -157 0
-172 20 -141 -190 -287 -80 -56 -160 -112 -179 -126 l-34 -25 2 -183 c2 -128
6 -185 14 -190 19 -12 335 -9 360 3 12 6 34 22 48 36 l26 24 25 -38 c31 -46
95 -113 107 -113 10 0 88 83 139 148 35 44 33 66 -2 25 -30 -34 -52 -22 -92
49 l-29 53 0 645 0 645 78 3 c74 3 77 4 77 27 0 25 -2 25 -81 25 l-82 0 6 89
c4 48 9 96 13 105 12 30 -20 17 -101 -43 -44 -33 -85 -64 -90 -69 -6 -5 -23
-17 -38 -27 -20 -12 -26 -23 -22 -36 6 -19 -5 -19 -342 -17 l-348 3 -3 50 c-2
28 0 70 3 94 6 41 8 43 33 36 15 -4 61 -9 102 -12 70 -4 78 -2 121 25 26 17
54 45 63 63 20 40 32 134 18 142 -5 4 -26 -9 -46 -28 -71 -66 -157 -54 -296
42 -349 242 -408 273 -525 273 l-62 0 -49 -57 c-61 -71 -276 -316 -284 -323
-3 -3 -30 -34 -60 -70 -30 -36 -72 -83 -92 -105 -83 -91 -88 -98 -68 -110 6
-3 10 -10 10 -16 0 -5 -262 -9 -680 -9 l-680 0 0 116 c0 110 1 117 28 152 66
89 141 171 186 204 34 24 48 28 108 28 120 0 151 -15 409 -197 134 -96 221
-133 308 -133 133 0 201 69 201 204 l0 49 -44 -41 c-55 -51 -98 -60 -166 -38
-56 18 -88 38 -300 187 -170 118 -261 159 -357 159 l-61 0 -65 -72z m1827
-152 c39 -19 109 -62 156 -96 47 -33 113 -79 148 -102 34 -22 62 -46 62 -53 0
-8 -43 -45 -95 -84 -89 -67 -109 -91 -85 -106 34 -21 -16 -25 -330 -25 l-340
0 0 112 0 112 55 72 c31 40 87 102 126 138 l69 66 82 0 c72 0 89 -4 152 -34z
m1154 -678 c2 -147 1 -158 -16 -158 -9 0 -27 7 -38 15 -14 9 -52 15 -109 17
l-88 3 -16 46 c-34 98 -88 144 -197 167 -41 8 -61 30 -51 56 6 15 32 16 259
14 l253 -3 3 -157z m-928 -383 c0 -515 17 -467 -163 -463 l-122 3 -3 331 -2
332 136 111 c75 61 140 111 145 111 5 0 9 -175 9 -425z m-2944 381 c27 -23 28
-25 15 -67 -18 -62 -80 -117 -172 -153 -41 -16 -99 -40 -129 -53 -126 -55
-131 -57 -142 -41 -10 16 -10 299 0 314 12 19 39 22 224 23 172 1 178 0 204
-23z m3874 -926 c0 -236 2 -232 -123 -228 l-82 3 -3 135 c-1 74 1 140 5 146
13 19 176 134 190 134 10 0 13 -39 13 -190z"/>
<path d="M3345 3510 c-11 -5 -120 -9 -243 -9 -254 -1 -273 -5 -321 -71 -43
-60 -53 -125 -49 -323 3 -160 5 -175 27 -214 35 -60 73 -73 221 -73 130 0 138
4 101 51 -10 13 -44 62 -76 109 -76 113 -85 120 -105 78 -13 -28 -21 -33 -57
-36 -57 -4 -73 20 -73 110 0 56 4 71 24 95 l24 28 151 3 c82 2 158 -1 167 -6
14 -8 16 -39 15 -286 -1 -286 -6 -334 -42 -380 l-20 -26 -215 0 -214 0 -23 38
c-13 20 -29 58 -35 84 -17 66 -15 628 2 731 7 43 10 80 7 81 -7 4 -214 -144
-245 -174 -18 -18 -18 -21 -4 -37 41 -48 43 -59 48 -383 l5 -315 29 -52 c15
-28 53 -77 84 -107 l56 -56 291 0 292 0 60 63 c112 117 107 91 114 552 3 220
10 414 14 430 5 17 17 45 27 63 10 18 18 35 18 37 0 8 -33 4 -55 -5z"/>
<path d="M1870 2590 c0 -5 5 -10 10 -10 6 0 10 5 10 10 0 6 -4 10 -10 10 -5 0
-10 -4 -10 -10z"/>
</g>
</svg>
