<?xml version="1.0" standalone="no"?>
<!DOCTYPE svg PUBLIC "-//W3C//DTD SVG 20010904//EN"
 "http://www.w3.org/TR/2001/REC-SVG-20010904/DTD/svg10.dtd">
<svg version="1.0" xmlns="http://www.w3.org/2000/svg"
 width="600.000000pt" height="600.000000pt" viewBox="0 0 600.000000 600.000000"
 preserveAspectRatio="xMidYMid meet">
<g transform="translate(0.000000,600.000000) scale(0.100000,-0.100000)"
fill="#ffffff" stroke="none">
<path d="M2478 4369 c-27 -29 -192 -209 -220 -242 -11 -12 -32 -35 -47 -52
-29 -32 -204 -241 -259 -309 -29 -35 -31 -42 -18 -52 29 -21 17 -24 -85 -24
l-101 0 4 78 c2 42 10 98 18 124 19 66 5 76 -45 32 -22 -19 -78 -65 -125 -101
-47 -37 -89 -69 -93 -73 -5 -4 5 -22 22 -41 31 -34 39 -63 21 -74 -6 -3 -13 0
-16 9 -14 36 -76 46 -293 46 -127 0 -220 4 -240 11 -43 15 -45 10 -21 -45 18
-43 20 -69 20 -281 0 -272 5 -295 81 -391 55 -69 79 -84 94 -59 34 57 49 68
170 120 22 10 77 35 123 57 46 22 85 38 87 36 5 -5 9 -487 4 -492 -2 -2 -27 1
-54 7 -93 19 -165 -30 -342 -232 -246 -282 -529 -358 -723 -195 -31 26 -32 30
-26 80 8 70 -17 107 -58 85 -36 -20 -36 -85 -1 -141 28 -44 131 -130 156 -130
8 0 19 -4 25 -8 43 -36 282 -49 373 -21 219 69 278 105 426 253 107 108 130
128 191 170 63 42 83 35 158 -56 48 -60 54 -60 107 4 24 28 61 70 81 92 40 43
55 92 21 65 -10 -8 -22 -20 -26 -26 -20 -32 -61 -3 -98 69 -18 35 -19 65 -19
508 l0 471 118 -3 117 -3 2 -520 3 -520 25 -50 c24 -48 41 -71 106 -143 38
-41 50 -40 85 6 16 20 52 63 81 94 29 32 53 62 53 68 0 18 -35 11 -48 -10 -21
-34 -48 -24 -84 33 l-33 52 0 493 0 492 700 3 700 2 5 -525 c3 -289 9 -534 14
-545 26 -57 140 -195 161 -195 7 0 39 30 71 68 107 122 116 134 104 146 -8 8
-17 4 -32 -16 -35 -49 -82 -21 -118 70 -10 27 -19 786 -11 982 1 13 48 15 358
15 421 0 422 -1 278 -98 -33 -22 -62 -43 -65 -46 -3 -4 -30 -25 -60 -47 -30
-23 -64 -50 -75 -60 -19 -17 -109 -93 -145 -121 -66 -51 -79 -66 -73 -76 5 -7
10 -172 13 -367 l5 -355 218 -3 219 -2 40 40 c49 49 40 50 76 -13 66 -117 101
-139 138 -86 12 16 51 61 88 100 37 38 64 74 61 79 -11 18 -34 11 -51 -15 -21
-32 -34 -32 -65 3 -56 63 -54 38 -57 575 l-3 498 78 -3 78 -3 -3 -42 c-6 -79
32 -126 157 -195 64 -35 42 -51 -65 -46 -85 5 -94 4 -88 -11 31 -76 36 -108
31 -175 -5 -67 9 -165 26 -182 4 -4 7 -15 7 -24 0 -25 67 -98 111 -120 44 -23
299 -31 299 -9 0 12 -106 163 -151 216 -29 34 -39 33 -39 -3 0 -93 -138 -62
-155 35 -13 80 -12 81 219 81 261 0 240 19 238 -212 l-2 -137 -57 -35 c-139
-84 -358 -248 -354 -264 3 -10 6 -95 8 -189 l4 -173 184 0 185 0 39 39 40 40
24 -44 c35 -62 89 -125 108 -125 9 0 28 17 42 38 15 20 49 59 77 87 31 31 50
58 50 72 0 32 -12 29 -40 -9 l-23 -32 -39 43 c-21 24 -42 60 -48 80 -11 40
-15 1275 -4 1293 4 6 32 8 80 3 l74 -7 0 34 0 35 -80 -5 -80 -5 0 41 c0 49 19
143 31 157 31 32 -3 58 -37 27 -46 -42 -210 -169 -226 -175 -11 -4 -15 -13
-11 -26 5 -21 4 -21 -341 -21 l-346 0 0 90 c0 104 6 111 72 89 141 -46 266 28
284 168 10 79 -24 142 -41 76 -9 -36 -60 -81 -101 -89 -56 -10 -131 23 -269
121 -164 115 -261 178 -311 200 -21 9 -47 21 -56 26 -40 21 -160 23 -175 3
-16 -22 -109 -129 -138 -158 -19 -20 -160 -178 -214 -241 -14 -17 -44 -53 -65
-80 -22 -28 -62 -74 -90 -103 -45 -46 -49 -55 -38 -72 6 -11 12 -22 12 -25 0
-8 -1358 -6 -1363 3 -8 15 9 233 18 240 6 4 46 49 89 101 113 133 140 151 233
151 40 0 81 -4 91 -9 9 -5 35 -16 57 -26 22 -9 84 -49 139 -88 273 -199 373
-240 488 -202 89 28 128 83 141 196 8 65 -13 116 -28 68 -12 -39 -78 -97 -119
-104 -57 -11 -132 23 -266 120 -57 41 -241 165 -245 165 -2 0 -21 10 -42 23
-96 57 -218 74 -255 36z m1731 -191 c37 -13 177 -97 246 -149 58 -43 137 -94
158 -102 34 -13 16 -34 -88 -106 -91 -64 -103 -76 -94 -92 5 -11 14 -19 19
-19 6 0 10 -4 10 -10 0 -6 -122 -10 -345 -10 l-345 0 0 114 c0 63 3 116 8 118
4 2 29 30 56 63 64 80 126 146 167 178 39 31 142 38 208 15z m1201 -547 c9 -2
9 -341 1 -341 -5 0 -14 7 -21 15 -26 32 -73 45 -155 45 -85 0 -95 5 -95 47 0
73 -71 138 -182 167 -54 14 -75 33 -65 59 5 14 37 15 259 12 139 -1 255 -3
258 -4z m-930 -123 c8 -302 -3 -845 -17 -860 -14 -16 -34 -18 -145 -18 l-128
0 0 268 c0 147 3 298 7 335 l6 68 66 52 c36 28 68 54 71 57 76 79 140 124 140
98z m-2938 -25 c23 -21 23 -64 -1 -111 -27 -54 -44 -66 -161 -115 -58 -25
-136 -59 -173 -76 -105 -49 -102 -54 -105 137 -2 161 -2 163 20 172 45 17 399
12 420 -7z m3870 -933 c-2 -241 4 -230 -117 -230 l-95 0 0 78 c0 42 3 107 6
144 l7 68 70 52 c94 71 120 88 126 82 2 -2 4 -90 3 -194z"/>
<path d="M3365 3522 c-42 -22 -187 -33 -346 -25 -157 7 -175 4 -216 -36 -59
-56 -73 -118 -73 -329 1 -290 17 -312 238 -312 146 0 152 3 109 57 -12 15 -53
74 -91 130 -69 103 -86 116 -86 64 0 -37 -17 -51 -61 -51 -53 0 -62 17 -60
112 2 124 1 123 209 123 l167 0 3 -260 c3 -283 -4 -348 -45 -402 l-24 -33
-213 0 -214 0 -24 33 c-43 56 -48 105 -48 431 0 301 7 387 40 463 13 32 -3 36
-38 10 -209 -150 -260 -196 -239 -212 50 -37 52 -50 57 -390 l5 -320 36 -56
c20 -31 57 -77 82 -103 l45 -46 291 0 c334 0 312 -5 389 94 45 58 62 86 77
131 4 11 6 185 5 388 -1 386 2 416 45 487 44 72 39 83 -20 52z"/>
</g>
</svg>
